<?xml version="1.0" encoding="utf-8"?>

<svg version="1.1" xmlns="http://www.w3.org/2000/svg" xmlns:xlink="http://www.w3.org/1999/xlink" x="0px" y="0px" viewBox="0 0 1000 1000" enable-background="new 0 0 1000 1000" xml:space="preserve">
<g><path d="M990,503.8c0-12.3-6.1-24.5-18.4-36.8L598,93.5c-18.4-18.4-49-18.4-61.3,0c-12.3,18.4-18.4,42.9,0,61.3l300.1,300.1h-784C28.4,461,10,479.3,10,503.8c0,24.5,18.4,42.9,42.9,42.9h784L536.8,846.8c-18.4,18.4-18.4,42.9,0,61.3c6.1,6.1,18.4,12.3,30.6,12.3s24.5-6.1,30.6-12.3l373.6-373.6C983.9,528.3,990,516.1,990,503.8z" fill="white"/></g>
</svg>